Coordinates
version=1
nRows=13
nColumns=40
inDegrees=yes

Units are S.I. units (second, meters, Newtons, ...)
If the header above contains a line with 'inDegrees', this indicates whether rotational values are in degrees (yes) or radians (no).

endheader
time	pelvis_tilt	pelvis_list	pelvis_rotation	pelvis_tx	pelvis_ty	pelvis_tz	hip_flexion_r	hip_adduction_r	hip_rotation_r	knee_angle_r	knee_angle_r_beta	ankle_angle_r	subtalar_angle_r	mtp_angle_r	hip_flexion_l	hip_adduction_l	hip_rotation_l	knee_angle_l	knee_angle_l_beta	ankle_angle_l	subtalar_angle_l	mtp_angle_l	lumbar_extension	lumbar_bending	lumbar_rotation	arm_flex_r	arm_add_r	arm_rot_r	elbow_flex_r	pro_sup_r	wrist_flex_r	wrist_dev_r	arm_flex_l	arm_add_l	arm_rot_l	elbow_flex_l	pro_sup_l	wrist_flex_l	wrist_dev_l
      2.27500000	     10.67202665	      6.41780891	      1.28706256	     -0.39627999	      0.94139979	     -0.75552715	     25.80601799	     -8.03356964	     -8.40372549	     70.02911840	      1.22223869	     20.07397924	      0.00000000	      0.00000000	     50.65275828	      1.68529357	     -1.14058296	      9.81817478	      0.17135948	    -12.00883497	      0.00000000	      0.00000000	    -23.83775166	      0.70009485	      1.94803974	     89.95163049	    -17.88373589	     22.13651322	     40.05932184	     81.57658921	      0.00000000	      0.00000000	     89.94376006	    -10.96084946	     24.56165743	     37.41053279	     82.68247644	      0.00000000	      0.00000000
      2.28000000	     10.65681824	      6.42153331	      1.30161490	     -0.39643275	      0.94082848	     -0.75557204	     25.88309987	     -8.03116929	     -8.37944442	     70.14325640	      1.22423077	     20.19912142	      0.00000000	      0.00000000	     50.67977389	      1.69309582	     -1.24275582	      9.79500450	      0.17095508	    -12.03326331	      0.00000000	      0.00000000	    -23.84115462	      0.68597222	      1.92122978	     89.95160078	    -17.93116998	     22.72404202	     40.15329747	     77.44161924	      0.00000000	      0.00000000	     89.94384147	    -10.98729215	     25.08892158	     37.52573099	     78.50092907	      0.00000000	      0.00000000
      2.28500000	     10.65666595	      6.41134359	      1.31947040	     -0.39660966	      0.94026491	     -0.75565527	     25.94891516	     -8.01679390	     -8.35829595	     70.25274512	      1.22614171	     20.23029702	      0.00000000	      0.00000000	     50.73439540	      1.70017389	     -1.38681760	      9.88754264	      0.17257017	    -12.00824914	      0.00000000	      0.00000000	    -23.85930732	      0.70345102	      1.85987849	     89.95157476	    -17.86744020	     22.07675741	     40.08758857	     81.73029536	      0.00000000	      0.00000000	     89.94404920	    -11.03017423	     24.54920238	     37.47332770	     82.53822710	      0.00000000	      0.00000000
      2.29000000	     10.64501530	      6.32042212	      1.31739039	     -0.39699037	      0.93990990	     -0.75557308	     26.01605472	     -7.86506753	     -8.30456022	     70.28729585	      1.22674473	     20.24227646	      0.00000000	      0.00000000	     50.78602414	      1.62502021	     -1.42535979	      9.91463200	      0.17304297	    -12.14230364	      0.00000000	      0.00000000	    -23.89701203	      0.77459289	      1.87849703	     89.95155633	    -17.86175959	     22.04457245	     40.08692149	     81.74033724	      0.00000000	      0.00000000	     89.94418259	    -11.04258322	     24.48847919	     37.52160792	     82.51404582	      0.00000000	      0.00000000
      2.29500000	     10.58557666	      6.32641012	      1.31846396	     -0.39726727	      0.93925015	     -0.75561446	     26.16659830	     -7.82428478	     -8.20568843	     70.41375131	      1.22895180	     20.36370286	      0.00000000	      0.00000000	     50.89601509	      1.61824635	     -1.59339343	      9.98931038	      0.17434636	    -12.07035144	      0.00000000	      0.00000000	    -23.86498691	      0.76320821	      1.82467385	     89.95167391	    -17.81098810	     22.06289234	     40.08639123	     81.61531592	      0.00000000	      0.00000000	     89.94425051	    -11.09509831	     24.46670031	     37.57401163	     82.59653502	      0.00000000	      0.00000000
      2.30000000	     10.54633569	      6.31737295	      1.34965197	     -0.39748292	      0.93863560	     -0.75564883	     26.27684297	     -7.77221998	     -8.14525216	     70.51093603	      1.23064799	     20.45291047	      0.00000000	      0.00000000	     50.96419535	      1.64177326	     -1.70119579	      9.99139233	      0.17438269	    -12.13566396	      0.00000000	      0.00000000	    -23.84668279	      0.77160471	      1.77229399	     89.95163619	    -17.77348543	     21.99567425	     40.07820865	     81.75603651	      0.00000000	      0.00000000	     89.94432458	    -11.14098360	     24.45326853	     37.61885628	     82.63699311	      0.00000000	      0.00000000
      2.30500000	     10.53652895	      6.30042163	      1.38762517	     -0.39764794	      0.93812436	     -0.75565303	     26.32873116	     -7.71268994	     -8.10307597	     70.58397180	      1.23192271	     20.57476988	      0.00000000	      0.00000000	     51.00897577	      1.66392406	     -1.74516602	     10.02629861	      0.17499192	    -12.08272693	      0.00000000	      0.00000000	    -23.85948941	      0.77864575	      1.71922959	     89.95164601	    -17.78269976	     21.98326019	     40.07817094	     81.81010296	      0.00000000	      0.00000000	     89.94451666	    -11.15219105	     24.40892926	     37.66436424	     82.59036633	      0.00000000	      0.00000000
      2.31000000	     10.59234622	      6.36990427	      1.41875962	     -0.39770091	      0.93748696	     -0.75566918	     26.32678126	     -7.73855090	     -8.02014559	     70.73239414	      1.23451317	     20.87213487	      0.00000000	      0.00000000	     50.95626261	      1.75782455	     -1.78774888	     10.00571700	      0.17463271	    -11.91727025	      0.00000000	      0.00000000	    -23.91247779	      0.68384962	      1.67717958	     89.95170684	    -17.86541277	     23.46038802	     40.26330717	     70.35865510	      0.00000000	      0.00000000	     89.94459738	    -11.10023682	     25.76558585	     37.92851369	     70.91500078	      0.00000000	      0.00000000
      2.31500000	     10.55433665	      6.39062004	      1.49430277	     -0.39782202	      0.93696485	     -0.75572935	     26.40914483	     -7.72251394	     -7.98121940	     70.80006590	      1.23569426	     20.89537417	      0.00000000	      0.00000000	     51.02976632	      1.83739423	     -1.89796236	     10.03011500	      0.17505853	    -12.05579078	      0.00000000	      0.00000000	    -23.89058800	      0.68813333	      1.52536877	     89.95160289	    -17.74171458	     21.99655135	     39.98492431	     81.80779866	      0.00000000	      0.00000000	     89.94491449	    -11.23471962	     24.50238871	     37.77147900	     82.43660666	      0.00000000	      0.00000000
      2.32000000	     10.48808572	      6.40027587	      1.51908834	     -0.39817709	      0.93647293	     -0.75577884	     26.53850916	     -7.65332002	     -7.86654252	     70.84864944	      1.23654220	     21.00268264	      0.00000000	      0.00000000	     51.11176925	      1.88200018	     -1.93871183	      9.99061506	      0.17436913	    -12.16772180	      0.00000000	      0.00000000	    -23.86573942	      0.66731938	      1.48696640	     89.95156788	    -17.75593932	     21.97446313	     40.03384594	     81.65916826	      0.00000000	      0.00000000	     89.94500738	    -11.24527005	     24.45696815	     37.80802861	     82.64050582	      0.00000000	      0.00000000
      2.32500000	     10.49554159	      6.45237366	      1.58464442	     -0.39837674	      0.93600462	     -0.75586855	     26.57606384	     -7.64285587	     -7.76421436	     70.93484062	      1.23804652	     21.23520681	      0.00000000	      0.00000000	     51.11523630	      1.99864852	     -1.93103152	      9.95958923	      0.17382762	    -12.17635243	      0.00000000	      0.00000000	    -23.89955961	      0.61053961	      1.41211991	     89.95157152	    -17.80143966	     22.56249407	     40.04761282	     77.27301021	      0.00000000	      0.00000000	     89.94524856	    -11.22239752	     24.96689937	     37.92464439	     78.21977902	      0.00000000	      0.00000000
      2.33000000	     10.49720918	      6.48243807	      1.64514269	     -0.39844572	      0.93547064	     -0.75589267	     26.61572526	     -7.62039368	     -7.70781847	     71.02212985	      1.23957001	     21.32225640	      0.00000000	      0.00000000	     51.14915083	      2.08257345	     -1.97261834	     10.00509260	      0.17462181	    -12.16207822	      0.00000000	      0.00000000	    -23.92117554	      0.58149728	      1.29496037	     89.95161569	    -17.74022536	     21.91127655	     39.97054462	     81.68445066	      0.00000000	      0.00000000	     89.94527852	    -11.28630252	     24.38734203	     37.97408910	     82.61516465	      0.00000000	      0.00000000
      2.33500000	     10.51141271	      6.48270233	      1.68458351	     -0.39854680	      0.93505698	     -0.75579002	     26.64088540	     -7.51993295	     -7.57872669	     71.08738604	      1.24070894	     21.41617616	      0.00000000	      0.00000000	     51.14060503	      2.12845569	     -1.93421047	      9.98350880	      0.17424510	    -12.13931208	      0.00000000	      0.00000000	    -23.95561985	      0.55804137	      1.25170306	     89.95154468	    -17.77324886	     21.90885020	     39.94586468	     81.74606753	      0.00000000	      0.00000000	     89.94537723	    -11.27783997	     24.37570278	     38.01194188	     82.58896925	      0.00000000	      0.00000000
